<?xml version="1.0" standalone="no"?>
<!DOCTYPE svg PUBLIC "-//W3C//DTD SVG 20010904//EN"
 "http://www.w3.org/TR/2001/REC-SVG-20010904/DTD/svg10.dtd">
<svg version="1.0" xmlns="http://www.w3.org/2000/svg"
 width="2000.000000pt" height="2000.000000pt" viewBox="0 0 2000.000000 2000.000000"
 preserveAspectRatio="xMidYMid meet">
<metadata>
Created by potrace 1.16, written by Peter Selinger 2001-2019
</metadata>
<g transform="translate(0.000000,2000.000000) scale(0.100000,-0.100000)"
fill="#000000" stroke="none">
<path d="M1010 16820 l0 -2170 2170 0 2170 0 0 2170 0 2170 -2170 0 -2170 0 0
-2170z m3720 0 l0 -1550 -1550 0 -1550 0 0 1550 0 1550 1550 0 1550 0 0 -1550z"/>
<path d="M2250 16820 l0 -930 930 0 930 0 0 930 0 930 -930 0 -930 0 0 -930z"/>
<path d="M6590 18680 l0 -310 -310 0 -310 0 0 -620 0 -620 310 0 310 0 0 -310
0 -310 -310 0 -310 0 0 -310 0 -310 620 0 620 0 0 620 0 620 -310 0 -310 0 0
310 0 310 620 0 620 0 0 -310 0 -310 310 0 310 0 0 -310 0 -310 -310 0 -310 0
0 -620 0 -620 -310 0 -310 0 0 -310 0 -310 310 0 310 0 0 -310 0 -310 -620 0
-620 0 0 620 0 620 -310 0 -310 0 0 -620 0 -620 -620 0 -620 0 0 -310 0 -310
-310 0 -310 0 0 310 0 310 -1550 0 -1550 0 0 -310 0 -310 310 0 310 0 0 -310
0 -310 -310 0 -310 0 0 -310 0 -310 310 0 310 0 0 -310 0 -310 310 0 310 0 0
-310 0 -310 -310 0 -310 0 0 -310 0 -310 -310 0 -310 0 0 -620 0 -620 620 0
620 0 0 -310 0 -310 620 0 620 0 0 310 0 310 -620 0 -620 0 0 310 0 310 -310
0 -310 0 0 310 0 310 620 0 620 0 0 310 0 310 310 0 310 0 0 -310 0 -310 620
0 620 0 0 -310 0 -310 310 0 310 0 0 -310 0 -310 -620 0 -620 0 0 -310 0 -310
620 0 620 0 0 -310 0 -310 -310 0 -310 0 0 -310 0 -310 -310 0 -310 0 0 310 0
310 -310 0 -310 0 0 -620 0 -620 -310 0 -310 0 0 -310 0 -310 310 0 310 0 0
310 0 310 310 0 310 0 0 -310 0 -310 1240 0 1240 0 0 -310 0 -310 -310 0 -310
0 0 -310 0 -310 620 0 620 0 0 -310 0 -310 310 0 310 0 0 310 0 310 310 0 310
0 0 -310 0 -310 1240 0 1240 0 0 310 0 310 310 0 310 0 0 310 0 310 620 0 620
0 0 -310 0 -310 -310 0 -310 0 0 -310 0 -310 310 0 310 0 0 -310 0 -310 -310
0 -310 0 0 -310 0 -310 -310 0 -310 0 0 310 0 310 -310 0 -310 0 0 -310 0
-310 310 0 310 0 0 -310 0 -310 -620 0 -620 0 0 310 0 310 -310 0 -310 0 0
-310 0 -310 -310 0 -310 0 0 -620 0 -620 930 0 930 0 0 310 0 310 310 0 310 0
0 -310 0 -310 930 0 930 0 0 310 0 310 310 0 310 0 0 -310 0 -310 620 0 620 0
0 310 0 310 -310 0 -310 0 0 310 0 310 310 0 310 0 0 310 0 310 -310 0 -310 0
0 -310 0 -310 -620 0 -620 0 0 -310 0 -310 -310 0 -310 0 0 310 0 310 -310 0
-310 0 0 310 0 310 310 0 310 0 0 310 0 310 1550 0 1550 0 0 -310 0 -310 310
0 310 0 0 -310 0 -310 620 0 620 0 0 -310 0 -310 -310 0 -310 0 0 -310 0 -310
310 0 310 0 0 310 0 310 310 0 310 0 0 -310 0 -310 310 0 310 0 0 620 0 620
-620 0 -620 0 0 310 0 310 310 0 310 0 0 310 0 310 310 0 310 0 0 310 0 310
-310 0 -310 0 0 310 0 310 -620 0 -620 0 0 -310 0 -310 -310 0 -310 0 0 620 0
620 310 0 310 0 0 620 0 620 620 0 620 0 0 -310 0 -310 310 0 310 0 0 620 0
620 -620 0 -620 0 0 310 0 310 620 0 620 0 0 930 0 930 -310 0 -310 0 0 -310
0 -310 -620 0 -620 0 0 310 0 310 310 0 310 0 0 310 0 310 -310 0 -310 0 0
-310 0 -310 -310 0 -310 0 0 310 0 310 -310 0 -310 0 0 310 0 310 1240 0 1240
0 0 310 0 310 310 0 310 0 0 310 0 310 -310 0 -310 0 0 310 0 310 310 0 310 0
0 310 0 310 -310 0 -310 0 0 310 0 310 -620 0 -620 0 0 -930 0 -930 -310 0
-310 0 0 -310 0 -310 -310 0 -310 0 0 -310 0 -310 -310 0 -310 0 0 620 0 620
310 0 310 0 0 310 0 310 310 0 310 0 0 620 0 620 -310 0 -310 0 0 -310 0 -310
-310 0 -310 0 0 310 0 310 -930 0 -930 0 0 -310 0 -310 -310 0 -310 0 0 1860
0 1860 -310 0 -310 0 0 620 0 620 310 0 310 0 0 -310 0 -310 310 0 310 0 0
-620 0 -620 310 0 310 0 0 620 0 620 -310 0 -310 0 0 310 0 310 310 0 310 0 0
310 0 310 -310 0 -310 0 0 -310 0 -310 -310 0 -310 0 0 310 0 310 -310 0 -310
0 0 -310 0 -310 -620 0 -620 0 0 310 0 310 -1240 0 -1240 0 0 -310 0 -310
-310 0 -310 0 0 310 0 310 -620 0 -620 0 0 -310z m3720 -620 l0 -310 310 0
310 0 0 -620 0 -620 310 0 310 0 0 310 0 310 310 0 310 0 0 -1550 0 -1550
-620 0 -620 0 0 -620 0 -620 310 0 310 0 0 310 0 310 620 0 620 0 0 -310 0
-310 1240 0 1240 0 0 -310 0 -310 -1240 0 -1240 0 0 -310 0 -310 310 0 310 0
0 -310 0 -310 310 0 310 0 0 310 0 310 310 0 310 0 0 -310 0 -310 310 0 310 0
0 -310 0 -310 310 0 310 0 0 -310 0 -310 310 0 310 0 0 -310 0 -310 310 0 310
0 0 -310 0 -310 -310 0 -310 0 0 310 0 310 -1240 0 -1240 0 0 -310 0 -310
-310 0 -310 0 0 310 0 310 -310 0 -310 0 0 620 0 620 310 0 310 0 0 310 0 310
-620 0 -620 0 0 930 0 930 -310 0 -310 0 0 -1240 0 -1240 -930 0 -930 0 0
-310 0 -310 310 0 310 0 0 -930 0 -930 930 0 930 0 0 310 0 310 310 0 310 0 0
-310 0 -310 -310 0 -310 0 0 -310 0 -310 620 0 620 0 0 310 0 310 310 0 310 0
0 -310 0 -310 310 0 310 0 0 -310 0 -310 -930 0 -930 0 0 -310 0 -310 310 0
310 0 0 -310 0 -310 -310 0 -310 0 0 310 0 310 -310 0 -310 0 0 310 0 310
-310 0 -310 0 0 -310 0 -310 -310 0 -310 0 0 310 0 310 -310 0 -310 0 0 -620
0 -620 310 0 310 0 0 -310 0 -310 -620 0 -620 0 0 930 0 930 -310 0 -310 0 0
-620 0 -620 -310 0 -310 0 0 310 0 310 -310 0 -310 0 0 -620 0 -620 -310 0
-310 0 0 930 0 930 -1240 0 -1240 0 0 310 0 310 310 0 310 0 0 310 0 310 620
0 620 0 0 310 0 310 -620 0 -620 0 0 310 0 310 310 0 310 0 0 310 0 310 -310
0 -310 0 0 310 0 310 -310 0 -310 0 0 310 0 310 620 0 620 0 0 -310 0 -310
620 0 620 0 0 310 0 310 -310 0 -310 0 0 310 0 310 -1240 0 -1240 0 0 310 0
310 620 0 620 0 0 310 0 310 -310 0 -310 0 0 310 0 310 310 0 310 0 0 -310 0
-310 310 0 310 0 0 620 0 620 310 0 310 0 0 -310 0 -310 310 0 310 0 0 -310 0
-310 -620 0 -620 0 0 -310 0 -310 310 0 310 0 0 -310 0 -310 620 0 620 0 0
620 0 620 930 0 930 0 0 620 0 620 -310 0 -310 0 0 -310 0 -310 -310 0 -310 0
0 310 0 310 310 0 310 0 0 620 0 620 -310 0 -310 0 0 -310 0 -310 -310 0 -310
0 0 310 0 310 310 0 310 0 0 620 0 620 310 0 310 0 0 930 0 930 620 0 620 0 0
-310z m-6200 -4960 l0 -310 -310 0 -310 0 0 -620 0 -620 -620 0 -620 0 0 310
0 310 310 0 310 0 0 310 0 310 -310 0 -310 0 0 310 0 310 930 0 930 0 0 -310z
m13640 -1240 l0 -310 -310 0 -310 0 0 310 0 310 310 0 310 0 0 -310z m-6200
-2480 l0 -310 -310 0 -310 0 0 310 0 310 310 0 310 0 0 -310z m5580 -2170 l0
-620 -930 0 -930 0 0 620 0 620 930 0 930 0 0 -620z m-1240 -2170 l0 -930
-930 0 -930 0 0 930 0 930 930 0 930 0 0 -930z m-2480 -620 l0 -310 -310 0
-310 0 0 310 0 310 310 0 310 0 0 -310z m4960 -620 l0 -310 -310 0 -310 0 0
310 0 310 310 0 310 0 0 -310z m-1240 -620 l0 -310 -310 0 -310 0 0 310 0 310
310 0 310 0 0 -310z"/>
<path d="M9690 17440 l0 -310 310 0 310 0 0 310 0 310 -310 0 -310 0 0 -310z"/>
<path d="M9690 15580 l0 -930 310 0 310 0 0 -310 0 -310 310 0 310 0 0 310 0
310 310 0 310 0 0 620 0 620 -310 0 -310 0 0 -620 0 -620 -310 0 -310 0 0 930
0 930 -310 0 -310 0 0 -930z"/>
<path d="M9690 12480 l0 -310 -620 0 -620 0 0 -310 0 -310 -310 0 -310 0 0
-310 0 -310 310 0 310 0 0 -310 0 -310 -620 0 -620 0 0 -310 0 -310 -310 0
-310 0 0 -310 0 -310 620 0 620 0 0 -310 0 -310 -310 0 -310 0 0 -310 0 -310
930 0 930 0 0 -310 0 -310 310 0 310 0 0 310 0 310 -310 0 -310 0 0 620 0 620
310 0 310 0 0 310 0 310 -620 0 -620 0 0 310 0 310 310 0 310 0 0 620 0 620
310 0 310 0 0 -310 0 -310 310 0 310 0 0 930 0 930 -310 0 -310 0 0 -310z
m-1240 -3100 l0 -310 -310 0 -310 0 0 310 0 310 310 0 310 0 0 -310z"/>
<path d="M14030 10310 l0 -620 -310 0 -310 0 0 -310 0 -310 310 0 310 0 0 310
0 310 620 0 620 0 0 310 0 310 -310 0 -310 0 0 310 0 310 -310 0 -310 0 0
-620z"/>
<path d="M7830 6900 l0 -310 310 0 310 0 0 310 0 310 -310 0 -310 0 0 -310z"/>
<path d="M14650 5040 l0 -310 310 0 310 0 0 310 0 310 -310 0 -310 0 0 -310z"/>
<path d="M14650 16820 l0 -2170 2170 0 2170 0 0 2170 0 2170 -2170 0 -2170 0
0 -2170z m3720 0 l0 -1550 -1550 0 -1550 0 0 1550 0 1550 1550 0 1550 0 0
-1550z"/>
<path d="M15890 16820 l0 -930 930 0 930 0 0 930 0 930 -930 0 -930 0 0 -930z"/>
<path d="M13410 14960 l0 -310 310 0 310 0 0 310 0 310 -310 0 -310 0 0 -310z"/>
<path d="M1630 7520 l0 -310 -310 0 -310 0 0 -310 0 -310 310 0 310 0 0 -310
0 -310 310 0 310 0 0 930 0 930 -310 0 -310 0 0 -310z"/>
<path d="M1010 3180 l0 -2170 2170 0 2170 0 0 2170 0 2170 -2170 0 -2170 0 0
-2170z m3720 0 l0 -1550 -1550 0 -1550 0 0 1550 0 1550 1550 0 1550 0 0 -1550z"/>
<path d="M2250 3180 l0 -930 930 0 930 0 0 930 0 930 -930 0 -930 0 0 -930z"/>
<path d="M5970 2560 l0 -1550 930 0 930 0 0 310 0 310 310 0 310 0 0 310 0
310 -620 0 -620 0 0 -310 0 -310 -310 0 -310 0 0 620 0 620 620 0 620 0 0 310
0 310 -620 0 -620 0 0 310 0 310 -310 0 -310 0 0 -1550z"/>
</g>
</svg>
